<svg xmlns="http://www.w3.org/2000/svg" xmlns:xlink="http://www.w3.org/1999/xlink" version="1.1" x="10px" y="10px" viewBox="0 0 1024 1280" style="enable-background:new 0 0 1024 1024;" xml:space="preserve"><g><g><g><path d="M817.7,612.5c-2.2,6.6-4.5,13.1-7,19.5c-0.7,1.7-1.4,3.5-2.1,5.2c-2.4,5.9,2.2-4.9-0.4,0.9     c-1.5,3.4-3.1,6.8-4.7,10.2c-3.3,7-7.5,13.8-9,21.4c-1.7,8.7-1.5,17.8,1.6,26.2c5.6,15,18.5,25.5,29.5,36.5     c4.2,4.2,8.5,8.4,12.6,12.6c0.3,0.3,0.7,0.7,1,1c3.8,3.5-2.4-4.6-0.2-0.4c0.3,0.5,0.8,2,1.3,2.4c-0.5-1.1-1-2.3-1.5-3.4     c0.3,0.9,0.5,1.7,0.7,2.6c-0.2-1.3-0.3-2.7-0.5-4c0.1,0.9,0.1,1.8,0.1,2.7c0.3,4.7,1.4-5.6,0.1-1.3c-1.4,4.7,3.3-5.1,0.5-0.9     c-0.2,0.4-0.5,0.8-0.7,1.2c-1.4,2.1-1,1.6,1.4-1.7c-0.6,0.4-0.7,0.8-1.1,1.2c-0.5,0.5-1.1,1.1-1.6,1.6c-2.4,2.4-4.8,4.8-7.1,7.1     c-19.2,19.2-38.4,38.4-57.7,57.7c-7.8,7.8-15.6,15.6-23.5,23.5c-1.6,1.6-3.3,3.2-4.9,4.9c-0.1,0.1-0.2,0.2-0.2,0.2     c-2.5,2.7,0-1,1.8-1.2c-0.5,0.1-3.2,1.7-3.6,2c2.7-2.4,4.7-2.1,1.5-1c-3,1,6.7,0,2-0.3c-0.4,0-0.9,0-1.3,0     c-2.7-0.2-1.8,0,2.6,0.4c-0.9-0.2-1.8-0.4-2.6-0.7c3.6,1.7,4.6,2.1,2.8,1.2c-0.7-0.4-2.3-1.7-3-1.7c1.7,0.2,4.3,3.9,1.8,1.2     c-0.2-0.2-0.5-0.5-0.7-0.7c-1.6-1.6-3.2-3.2-4.8-4.8c-5-5-10-10-15-15c-3.7-3.7-7.3-7.4-11-11c-9.9-9.7-23.7-15.9-37.8-14.5     c-9.5,0.9-17,4.2-25.5,8.3c-3.4,1.6-6.7,3.2-10.1,4.8c-1.1,0.5-2.3,1-3.4,1.5c-2.6,1.1-2.3,1,0.8-0.3c-1.2,0.5-2.3,1-3.5,1.4     c-14.6,5.9-30.9,9-42.7,19.9c-9.8,9.1-14.8,22.5-14.9,35.7c-0.1,5.2,0,10.3,0,15.5c0,7.1,0,14.1,0,21.2c0,2.2,0,4.3,0,6.5     c0,0.4,0,0.8,0,1.2c0,0.5-0.2,0.6,0,1.5c0.7-4.4,0.8-5.2,0.3-2.6c-0.1,0.7-0.3,1.3-0.5,1.9c-0.2,2.8,3.2-5.4,0.7-1.8     c-0.2,0.4-0.4,0.7-0.7,1.1c-1.5,2.1-0.9,1.5,1.6-2c-0.3,0.3-0.6,0.6-0.9,0.9c-1.9,1.7-1.2,1.3,2.1-1.4c-0.6,0.2-1.8,1.1-2.2,1.4     c-3.8,2.7,5.7-1.3,1.1-0.5c-0.4,0.1-0.9,0.2-1.3,0.3c-2.6,0.5-1.7,0.4,2.6-0.3c-0.5-0.1-1.1,0.1-1.6,0c-2.2-0.1-4.4,0-6.6,0     c-25.6,0-51.2,0-76.8,0c-12.5,0-25,0-37.5,0c-3.6,0-7.1,0-10.7,0c-0.8,0-1.6,0-2.3,0c-0.1,0-0.2,0-0.3,0     c-3.3,0.2-0.2-0.8,2.5,0.5c-0.9-0.2-1.7-0.4-2.6-0.6c-2.5-0.8-1.7-0.5,2.3,1.1c-0.4-0.4-1.9-1.1-2.3-1.3c-4.2-2.2,4.4,4,1,0.7     c-3.4-3.4,2.9,5.3,0.7,1c-0.2-0.4-0.9-1.9-1.3-2.3c0.5,1.2,1,2.4,1.5,3.6c-0.3-0.8-0.6-1.7-0.8-2.5c-1.5-4.6,0,6.2,0.3,1.2     c0-0.3,0-0.7,0-1c0-5.5,0-11.1,0-16.6c0-12.9,1.9-28.3-1.9-40.9c-5.1-17.2-18.1-28.2-34.6-33.8c-6.5-2.2-13-4.5-19.5-7.1     c-1.7-0.7-3.5-1.4-5.2-2.1c0.7,0.3,5,2.2,0.8,0.3c-4-1.8-8-3.6-11.9-5.5c-6.4-3.1-12.7-6.8-19.8-8.1c-11.2-2.2-22-0.8-32.2,4.1     c-6.6,3.2-11.8,8.3-16.9,13.4c-8.8,8.8-17.6,17.8-26.5,26.5c-0.3,0.3-0.6,0.6-0.9,0.9c-3.4,3.6,4.4-2.2,0.5-0.3     c-0.4,0.2-0.8,0.5-1.2,0.7c-2.4,1.1-1.6,0.8,2.2-0.9c-0.4,0.1-0.9,0.3-1.3,0.4c-2.6,0.6-1.7,0.5,2.7-0.2c-0.9-0.2-2.4,0-3.4,0     c-2-0.1-0.9,0,3.3,0.5c-0.9-0.2-1.8-0.4-2.6-0.7c1.1,0.5,2.3,1,3.4,1.5c-0.8-0.4-1.6-0.8-2.4-1.3c-4.2-2,3.1,3.2,1.1,0.9     c-0.2-0.2-0.5-0.4-0.7-0.7c-0.6-0.6-1.2-1.2-1.7-1.7c-16.6-16.6-33.3-33.3-49.9-49.9c-14.4-14.4-28.3-29.3-43.2-43.2     c-0.1-0.1-0.1-0.1-0.2-0.2c-3.7-3.4,2.7,5,0.4,0.6c-0.3-0.5-0.8-2-1.3-2.4c0.5,1.1,1,2.3,1.5,3.4c-0.3-0.9-0.5-1.7-0.7-2.6     c0.2,1.3,0.3,2.7,0.5,4c-0.1-0.9-0.1-1.8-0.1-2.7c-0.3-4.7-1.3,4.9-0.3,2c1.9-5.5-3,4.2-0.4,0.2c3.6-5.6-3,2.5,0.3-0.6     c0.3-0.3,0.6-0.6,0.9-0.9c1.7-1.7,3.4-3.4,5.1-5.1c8.5-8.5,17.2-16.9,25.5-25.5c9.8-10.2,15.7-24,14.3-38.3     c-1-9.8-4.8-17.7-9-26.4c-1.4-2.8-2.7-5.6-4-8.5c-0.8-1.7-1.7-3.4-2.3-5.1c2.2,6.4-0.6-1.5-1.1-2.7c-5.7-14.2-8.7-30.2-19.7-41.5     c-9.4-9.6-22.3-14.3-35.6-14.4c-12.4-0.1-24.7,0-37.1,0c-2,0-3.9,0-5.9,0c-0.4,0-0.8,0-1.1,0c-3.4,0.1,0-0.7,2.5,0.5     c-0.8-0.4-3.1-1-3.9-1c1.2,0.5,2.4,1,3.6,1.5c-0.8-0.4-1.5-0.8-2.3-1.3c-4.2-2.2,4.4,4,1,0.7c-1.8-1.8,0.1-1.4,1.4,2.1     c-0.3-0.7-1.5-2.8-2-3.4c0.5,1.2,1,2.4,1.5,3.6c-0.3-0.8-0.6-1.7-0.8-2.5c-1.2-3.6,0.5,2,0.3,2.6c0.1-0.3-0.1-1.2,0-1.7     c0.7-20.6,0-41.3,0-61.9c0-23.3,0-46.6,0-69.8c0-0.7,0-1.4,0-2.1c0-0.1,0-0.2,0-0.3c-0.2-5-1.8,5.8-0.3,1.2     c0.1-0.4,0.2-0.9,0.3-1.3c0.8-2.5,0.5-1.7-1.1,2.3c0.5-0.5,1.7-2.6,2-3.4c-0.8,1-1.5,2-2.3,3c0.6-0.6,1.2-1.3,1.8-1.8     c-0.2,0.6-5.3,3.3-2,1.6c0.4-0.2,0.7-0.4,1.1-0.7c2.3-1.2,1.5-0.9-2.4,0.9c0.7,0,3.2-0.7,3.9-1c-3.9,1.9-5.2,0.4-2.5,0.5     c0.4,0,0.9,0,1.3,0c12.5-0.1,25,0,37.5,0c6.6,0,13.3,0,19.7-1.9c7.9-2.3,15.4-6.7,21.2-12.6c6.8-6.9,10.1-14.8,13.2-23.8     c2.2-6.5,4.6-13,7.2-19.4c0.4-1,0.8-2.6,1.4-3.5c-0.4,0.8-0.7,1.7-1.1,2.5c0.5-1.1,1-2.3,1.5-3.4c1.5-3.4,3.1-6.8,4.7-10.2     c4.3-8.8,8-16.6,9-26.4c0.9-9.2-1.3-18.8-5.7-26.9c-6.3-11.7-18.5-21.3-27.8-30.6c-3.8-3.8-7.7-7.7-11.5-11.5     c-0.3-0.3-0.6-0.6-0.9-0.9c-3.1-2.9,3.3,4.9-0.3-0.6c-2.7-4.2,1.9,5.6,0.5,0.9c-1.4-4.6,0.1,5.2,0.2,2c0-1,0.2-2.5,0-3.4     c-0.7,4.4-0.8,5.3-0.2,2.7c0.8-2.5,0.4-1.8-1.2,2.1c0.6-0.7,1.2-2.1,1.7-3c1.4-2.7-4.4,4.5-0.8,1.2c0.1-0.1,0.2-0.2,0.2-0.2     c0.6-0.5,1.1-1.1,1.7-1.7c2.6-2.6,5.2-5.2,7.8-7.8c8.9-8.9,17.8-17.8,26.6-26.6c18-18,36.1-36.1,54.1-54.1c1.5-1.5,3-2.9,4.5-4.5     c0.4-0.4,1-0.8,1.2-1.2c-2.3,3.6-3.9,2.5-1.7,1.4c0.4-0.2,0.8-0.5,1.2-0.7c2.4-1.1,1.6-0.8-2.2,0.9c0.4-0.1,0.9-0.3,1.3-0.4     c2.6-0.6,1.7-0.5-2.7,0.2c0.9,0.2,2.4,0,3.4,0c3.2-0.1-6.6-1.5-2-0.2c4.2,1.2-5.9-2.8,0.3,0.1c4.1,2-3.7-3.7-0.5-0.3     c0.4,0.4,0.8,0.8,1.1,1.1c1.6,1.6,3.2,3.2,4.9,4.9c5.1,5.1,10.3,10.3,15.4,15.4c3.4,3.4,6.7,6.8,10.1,10.1     c12.2,11.7,28.4,16.6,45,13.4c7.6-1.5,14.5-5.6,21.4-9c2.8-1.3,5.6-2.6,8.5-3.9c0.6-0.3,1.1-0.5,1.7-0.8c2.6-1.1,2.3-1-0.8,0.3     c1.3-0.9,3.7-1.5,5.2-2.1c14.6-5.8,31.2-8.8,42.4-20.6c8.9-9.4,13.4-21.7,13.5-34.6c0-5.5,0-11.1,0-16.6c0-6.8,0-13.6,0-20.5     c0-2,0-4,0-6.1c0-0.3,0-0.7,0-1c-0.1-2.7,1.4-1.4-0.5,2.5c0.2-0.9,0.4-1.7,0.6-2.6c0.8-2.5,0.5-1.7-1.1,2.3     c0.5-0.4,1.8-2.7,2-3.4c-0.1,0.2-4,5-1.4,2.1c3.2-3.5-5.2,2.9-1,0.7c0.4-0.2,0.7-0.4,1.1-0.7c2.3-1.2,1.5-0.9-2.4,0.9     c0.4,0,2-0.6,2.5-0.8c4.6-1.6-6.2,0-1.2,0.3c0.1,0,0.2,0,0.3,0c2.4,0.1,4.8,0,7.2,0c11.1,0,22.3,0,33.4,0c27,0,54.1,0,81.1,0     c3.4,0,6.7,0,10.1,0c0.7,0,1.4,0,2.2,0c0.5,0,1.2,0.2,1.6,0c-0.6,0.2-6.3-1.5-2.6-0.3c6.2,2.1-3.3-2.5,0.2-0.1     c0.4,0.2,0.7,0.4,1.1,0.7c2.1,1.5,1.5,0.9-2-1.6c0.1,0.3,1.8,1.8,1.8,1.8c-0.8-1-1.5-2-2.3-3c0.5,0.7,1,1.4,1.4,2.2     c2.7,3.9-1.6-5.8-0.5-1.1c0.1,0.6,0.3,2,0.6,2.6c-1.3-2.5-0.4-5.9-0.5-2.5c0,0.4,0,0.9,0,1.3c0,5.8,0,11.5,0,17.3     c0,13-1.9,28.7,2.3,41.2c2.6,7.8,7,15.3,13.1,20.8c6.8,6.1,14.2,9.4,22.8,12.3c6.5,2.2,13,4.6,19.4,7.2c1.1,0.5,7.1,2.5,0.9,0.4     c1.7,0.6,3.5,1.5,5.1,2.3c3.4,1.5,6.8,3.1,10.1,4.8c8.6,4.2,16.4,7.7,26.2,8.4c8.7,0.6,17.8-1.8,25.4-5.8     c6.3-3.4,11.2-8.3,16.1-13.3c8.8-8.8,17.4-17.6,26.3-26.3c0.2-0.2,0.5-0.4,0.7-0.7c2.5-2.8,0,1-1.8,1.2c0.5-0.1,3.2-1.7,3.6-2     c-2.5,2.2-4.8,1.9-2.1,1.2c4.7-1.4-6.2-0.2-1.3,0.1c0.4,0,0.9,0,1.3,0c2.7,0.2,1.8,0-2.6-0.4c0.9,0.2,1.8,0.4,2.6,0.7     c-3.6-1.7-4.6-2.1-2.8-1.2c0.7,0.4,2.3,1.7,3,1.7c-1.8-0.2-4.3-3.9-1.8-1.2c0.1,0.1,0.2,0.2,0.2,0.2c0.6,0.6,1.3,1.3,1.9,1.9     c6.6,6.6,13.2,13.2,19.9,19.9c19.7,19.7,39.4,39.4,59.1,59.1c4.6,4.6,9.1,9.5,14,14c0.4,0.3,0.7,0.9,1.1,1.2     c-0.7-0.9-1.4-1.9-2.2-2.8c0.5,0.8,1,1.6,1.4,2.4c2.7,4.2-1.9-5.6-0.5-0.9c1.4,4.6-0.1-5.2-0.2-2c0,1-0.2,2.5,0,3.4     c0.2-1.3,0.3-2.7,0.5-4c-0.2,0.9-0.4,1.8-0.7,2.6c1.8-3.8,2.1-4.6,0.9-2.2c-0.3,0.6-0.7,1.2-1.1,1.8c-1.2,2.4,4.2-4.4,0.6-1     c-0.4,0.3-0.7,0.7-1,1c-1.8,1.8-3.6,3.6-5.4,5.4c-8.4,8.4-16.9,16.6-25.1,25.1c-11.8,12.4-16.6,28.8-13.1,45.5     c1.5,7.4,5.6,14,8.8,20.7c1.6,3.4,3.1,6.8,4.7,10.2c1.9,4.2,0-0.1-0.3-0.8c1,2.3,1.9,4.6,2.8,7c5.6,14.3,8.6,30.2,20.4,41.1     c9.5,8.8,21.6,13,34.4,13.1c12.5,0.1,25,0,37.5,0c1.9,0,3.8,0,5.6,0c0.2,0,0.5,0,0.7,0c5-0.2-5.9-1.8-1.2-0.3     c0.9,0.2,1.7,0.5,2.5,0.8c-3.7-1.7-4.7-2.1-3-1.2c0.6,0.5,2.1,1.4,2.8,1.7c-1-0.8-2-1.5-3-2.3c0.6,0.6,1.3,1.2,1.8,1.8     c-0.8-1-1.5-2-2.3-3c0.5,0.7,1,1.4,1.4,2.2c1.5,2.2-1,1.7-0.9-2.4c0,0.7,0.7,3.2,1,3.9c-1.3-2.7-0.4-5.9-0.5-2.5     c0,0.2,0,0.3,0,0.5c-0.2,7.2,0,14.5,0,21.7c0,27.9,0,55.9,0,83.8c0,8.8,0,17.6,0,26.4c0,0.7,0,1.3,0,2c0,0.5-0.2,0.8,0,1.5     c0.2-1.3,0.4-2.6,0.6-3.9c-0.2,0.9-0.4,1.7-0.6,2.6c-0.8,4.1,2.8-5.8-0.2,0c-1.3,2.5-1.6-0.5,1.6-2c-0.3,0.3-0.6,0.6-0.9,0.9     c-1.9,1.7-1.2,1.3,2.1-1.4c-0.7,0.3-2.8,1.5-3.4,2c2.9-3,4.9-1.6,2.3-1.1c-6.7,1.3,4.7,0.2-0.2,0.1c-0.5,0-1.1,0-1.6,0     c-12.1,0.1-24.3,0-36.4,0c-6.5,0-12.7,0-19.1,1.5C835.3,583.4,823.3,596.7,817.7,612.5c-4.4,12.3,5,27.9,17.5,30.8     c14,3.2,26-4.3,30.8-17.5c-2.4,6.8-1.1,2.8-0.2,1c2.1-4.3-4.1,4.1-0.6,0.8c3.5-3.4-5.3,2.8-1,0.6c0.5-0.3,2-1,2.3-1.3     c-1.2,0.5-2.3,1-3.5,1.5c0.8-0.3,1.7-0.6,2.6-0.8c4.7-1.5-6.2,0-1.2,0.3c0.3,0,0.7,0,1,0c5.5,0,11.1,0,16.6,0     c13.3,0,29.3,2,42.1-2.3c21.8-7.2,34-27,34-49.4c0-9.6,0-19.3,0-28.9c0-28,0-56.1,0-84.1c0-6.1,0.2-12.3,0-18.4     c-0.4-16.8-8.4-31.4-22.3-40.8c-8.6-5.8-18.8-7.8-29-7.8c-12.9,0-25.9,0-38.8,0c-1.2,0-2.5,0-3.7,0c-4.4,0.2,6.5,1.2-0.1-0.1     c-4.6-0.9,4.9,3.1,1.1,0.4c-5.4-3.9,2.9,2.9-0.2-0.1c-2.1-2,0.8-1,1.4,2c-0.1-0.6-1.6-3-2-3.5c0.5,1.1,1,2.3,1.5,3.4     c-0.4-1.2-0.8-2.4-1.2-3.6c-0.5-1.5-1-3-1.5-4.5c-2.4-6.8-5-13.5-7.8-20.1c-3.3-7.7-6.6-15.4-10.3-23c-0.3-0.5-2.7-4.6-2.5-5     c0.4,1.1,0.9,2.1,1.3,3.2c-0.3-0.9-0.6-1.9-0.8-2.9c1.5,1.1,0.3,6.1,0.4,1.5c0-6.2-1.2,4.9,0,0.2c1.2-5-2.8,5.1-0.2,0.6     c2.6-4.5-4.1,3.9-0.2,0.3c0.2-0.2,0.3-0.3,0.5-0.5c1.5-1.5,3-3,4.5-4.5c8.8-8.8,17.7-17.5,26.4-26.4     c19.3-19.6,19.3-49.9,0.3-69.7c-5.2-5.4-10.6-10.6-15.9-15.9c-20-20-39.9-39.9-59.9-59.9c-6-6-11.9-12-18-18     c-19.5-19.3-49.7-20.1-69.8-1c-8.2,7.8-16.1,16.1-24.1,24.1c-2.8,2.8-5.8,5.4-8.4,8.4c-2.2,2.5,5.2-3.3,0.9-0.8     c-4.5,2.6,5.6-1.5,0.6-0.2c-5.1,1.3,6.2,0.1,0.9,0c-0.3,0-2.5-0.3-2.9-0.1c1.2,0.1,2.5,0.3,3.7,0.4c-1-0.2-1.9-0.5-2.9-0.8     c1.1,0.4,2.1,0.9,3.2,1.3c-1.1-0.6-2.2-1.1-3.3-1.7c-3.3-1.7-6.7-3.3-10.1-4.8c-7.6-3.5-15.4-6.8-23.2-9.8c-3.5-1.4-7-2.7-10.6-4     c-1.2-0.4-2.4-0.8-3.6-1.2c-1.2-0.4-2.4-0.8-3.6-1.2c-3-1-2.4-0.7,1.6,0.9c-0.5-0.4-2.9-1.9-3.5-2c1,0.8,2,1.5,2.9,2.3     c-0.7-0.6-1.3-1.2-1.9-1.9c0.5,0.1,3.3,5.3,1.5,1.9c-0.2-0.4-0.5-0.8-0.7-1.1c-1.2-2.3-0.9-1.5,0.9,2.3c0-0.7-0.7-3.3-1-3.9     c1.3,2.6,0.4,5.9,0.5,2.5c0-0.4,0-0.9,0-1.3c-0.1-12.6,0-25.2,0-37.9c0-6.9-0.1-13.9-2.3-20.6c-5.3-16-18.8-29.3-35.6-32.8     c-8.5-1.7-17.2-1.2-25.8-1.2c-27.7,0-55.4,0-83.1,0c-10.4,0-20.9,0-31.3,0c-1.7,0-3.4,0-5,0c-17.1,0.4-32.3,8.9-41.5,23.3     c-9,14.2-7.1,31.9-7.1,47.9c0,6.3,0,12.6,0,18.9c0,1.2-0.1,2.5,0,3.7c0.1,3.4-0.7,0,0.5-2.5c-0.3,0.6-1.1,3.2-1,3.9     c0.5-1.2,1-2.3,1.5-3.5c-0.4,0.8-0.8,1.6-1.3,2.3c-2.1,3.8,3.8-4.3,0.6-1c-3.3,3.4,5.2-2.7,0.8-0.6c-0.4,0.2-0.8,0.4-1.2,0.7     c-2.3,1.1-1.6,0.8,2.2-0.9c-2.5-0.1-6.6,2.2-8.9,3c-8.5,3-16.9,6.5-25.2,10c-6.3,2.7-12.5,5.5-18.7,8.6c-0.6,0.3-1.1,0.6-1.7,0.8     c-2.7,1.3-2.2,1.2,1.5-0.5c0.1,0-2.8,0.7-2.9,0.8c1.2-0.1,2.5-0.3,3.7-0.4c-1,0.1-2,0.1-2.9,0.1c-2.7-0.2-1.9-0.1,2.3,0.3     c-1-0.2-1.9-0.5-2.8-0.8c1.1,0.5,2.2,0.9,3.3,1.4c-0.9-0.4-1.7-0.9-2.6-1.5c0.5-0.2,4.6,4.2,1.6,1c-0.2-0.2-0.5-0.5-0.7-0.7     c-1.6-1.6-3.2-3.2-4.8-4.8c-4.9-4.9-9.8-9.8-14.6-14.6c-3.8-3.8-7.5-7.6-11.3-11.3c-9.7-9.5-23.1-15.5-36.9-14.6     c-12.6,0.7-23.8,5.8-32.8,14.6c-1.9,1.8-3.7,3.7-5.6,5.6c-18.7,18.7-37.4,37.4-56.1,56.1c-8.5,8.5-16.9,16.9-25.4,25.4     c-8.6,8.6-16.9,17-20.2,29.3c-4.4,16.9,0.6,34.5,12.6,47c3,3.1,6.1,6.1,9.1,9.1c5,5,10,10,15,15c1.9,1.9,3.8,3.8,5.6,5.6     c0.8,0.8,2.2,2.8,3.3,3.4c-0.7-0.9-1.4-1.8-2.1-2.7c0.6,0.8,1.1,1.7,1.5,2.6c-0.5-1.1-0.9-2.2-1.4-3.3c0.3,0.9,0.6,1.9,0.8,2.8     c-2-1.7-0.1-5.6-0.3-2.3c0,0.5,0,1,0,1.5c-0.2,2.7-0.1,2,0.4-2.3c-0.1,0.5-0.2,1-0.4,1.4c-0.9,2.5-0.6,1.9,0.9-1.8     c0.2,0.4-2.2,4.5-2.5,5c-1.6,3.4-3.2,6.7-4.8,10.1c-3.5,7.7-6.7,15.4-9.8,23.3c-1.1,2.9-2.2,5.9-3.3,8.8     c-0.6,1.8-1.2,3.6-1.9,5.3c-0.4,1.2-0.8,2.4-1.2,3.6c1.7-3.8,2.1-4.5,0.9-2.2c-0.4,0.7-3,4.4-0.3,0.8c3-4-0.6,0.2-0.7,0.4     c1-0.7,2-1.5,3-2.2c-0.7,0.5-1.5,1-2.2,1.4c-3.8,2.7,5.7-1.3,1.1-0.4c-0.8,0.2-5.3,1.3-0.7,0.3c2.7-0.6,2.4-0.2,0.5-0.2     c-0.6,0-1.1,0-1.7,0c-5.6,0-11.3,0-16.9,0c-13.4,0-29.6-2-42.4,2.7c-15.9,5.9-28.9,19.3-31.7,36.5c-0.8,4.6-1.1,8.6-1.1,13.1     c0,24.5,0,49,0,73.5c0,19.1-0.5,38.2,0,57.3c0.4,17.2,9.2,33.6,24.5,42.2c8.6,4.8,17.9,6.4,27.6,6.4c12.9,0,25.7,0,38.6,0     c1.1,0,2.1,0,3.2,0c5-0.2-5.9-1.8-1.2-0.3c0.8,0.3,5,1.7,0.8,0c-4.2-1.7-0.2,0.2,0.6,0.6c2.1,1.5,1.5,1-1.9-1.5     c0.7,0.6,1.3,1.2,1.9,1.9c-0.8-1-1.5-2-2.3-2.9c0.5,0.7,1,1.5,1.4,2.3c2.3,3.6-1.4-2.1-0.9-2.2c0,0,3.4,9.8,3.7,10.7     c3.1,8.5,6.5,16.9,10.1,25.2c2.7,6.3,5.4,12.6,8.7,18.6c2.5,4.6-0.7-1.1-0.5-1.5c0.2,0.5,0.3,1,0.5,1.4c0.6,2.7,0.6,1.9-0.1-2.3     c-0.2,0.5-0.2,3.9,0,4.4c0.7-4.2,0.7-5,0.1-2.3c-0.7,1.9-0.6,1.9,0.2-0.2c1.8-4.9-0.7,1.2-0.8,0.9c-0.3-1.1,4.1-4.4,1-1.5     c-0.3,0.3-0.5,0.5-0.8,0.8c-1.6,1.6-3.1,3.1-4.7,4.7c-8.7,8.7-17.6,17.2-26.1,26.1c-18.9,19.7-19,50,0.2,69.6     c15.3,15.6,30.9,30.9,46.4,46.4c15.8,15.8,31.5,31.8,47.5,47.5c19.5,19.2,49.7,19.7,69.6,0.8c8.4-8,16.4-16.4,24.6-24.6     c1.8-1.8,3.6-3.6,5.4-5.4c0.5-0.5,1-1,1.5-1.5c0.1-0.1,0.2-0.2,0.3-0.3c3-3.1-0.4,1.3-1.5,0.9c0.4-0.3,0.8-0.5,1.3-0.8     c2.4-1.2,1.7-1-2,0.7c0.2,0.1,2.9-0.9,2.8-0.8c-1.3,0.1-2.5,0.3-3.8,0.4c1-0.1,1.9-0.1,2.9-0.1c5.2-0.4-5.9-1.2-0.8,0     c5.2,1.3-5.5-3-0.1,0c1.1,0.6,2.2,1.1,3.3,1.7c3.9,1.9,7.9,3.8,11.9,5.5c7.7,3.4,15.5,6.7,23.3,9.7c2.9,1.1,5.9,2.2,8.8,3.2     c1.8,0.6,3.6,1.3,5.4,1.8c5.8,1.7-5-3,0.2,0c3.2,1.8,0.1,1.7-1.2-1.2c0.3,0.3,0.7,0.6,1,0.9c1.7,1.9,1.3,1.2-1.3-2     c0.3,0.7,1.5,2.9,2.1,3.4c-2.9-2.6-1.6-4.9-1.1-2.2c1.3,6.8,0.3-4.6,0.1,0.2c0,0.5,0,1.1,0,1.6c0.1,12.8,0,25.7,0,38.5     c0,9.4,1.2,18.2,5.3,26.8c6.2,13.1,19.6,23.4,33.9,25.8c8.4,1.4,16.7,1.1,25.1,1.1c13.2,0,26.4,0,39.6,0c24.9,0,49.8,0,74.7,0     c1.9,0,3.9,0.1,5.8,0c16.7-0.8,32.5-9.6,40.8-24.4c8.2-14.6,6.4-31.6,6.4-47.7c0-6.3,0-12.6,0-18.9c0-1.2,0.3-2.9,0-4     c0.8,4.3-1,5.1-0.1,1.9c0.9-3.5,1.6-0.6-0.9,1.6c0.5-0.5,1.8-2.7,2.1-3.4c-2.6,3.3-3.1,3.9-1.3,2c1.9-1.7,1.3-1.3-2,1.4     c0.5-0.1,2-1.2,2.3-1.4c4.4-2.6-6.5,2.1-0.4,0.3c3.6-1,7.2-2.4,10.7-3.7c7.9-2.9,15.7-6.1,23.4-9.5c6.3-2.7,12.6-5.5,18.6-8.7     c5.5-2.9-5.3,1.3-0.1,0c5.1-1.3-6-0.4-0.8,0c0.5,0,1,0,1.5,0c2.7,0.2,1.9,0.1-2.3-0.3c0.5,0.1,0.9,0.2,1.4,0.4     c2.5,0.8,1.9,0.5-1.9-0.9c0.4,0.2,0.9,0.5,1.3,0.7c2.2,1.4,1.7,1-1.4-1.3c0.3,0.6,0.8,0.7,1.2,1.1c0.3,0.3,0.6,0.6,0.9,0.9     c1.7,1.7,3.4,3.4,5.1,5.1c5.1,5.1,10.3,10.3,15.4,15.4c3.4,3.4,6.8,6.9,10.3,10.3c10.1,9.6,23.8,15.5,37.9,14.2     c12.2-1.2,22.8-5.9,31.6-14.6c2-1.9,3.9-3.9,5.9-5.9c8.4-8.4,16.8-16.8,25.2-25.2c18.9-18.9,37.8-37.8,56.7-56.7     c8.6-8.6,16.9-17.3,19.7-29.8c3.7-16.7-1.1-33.4-13-45.8c-3.2-3.3-6.5-6.5-9.7-9.7c-5-5-9.9-9.9-14.9-14.9     c-2.4-2.4-5.3-6.7-8.3-8.4c0.7,0.9,1.4,1.8,2.1,2.7c-0.4-0.6-0.8-1.2-1.1-1.9c-1.8-2.6,1.7,6,0.6,1.2c-1.2-5.1-0.3,6.1,0,0.9     c0-0.5,0-1,0-1.5c0.2-2.7,0.1-2-0.4,2.3c-0.1,0.1,0.9-2.7,0.8-2.9c-0.4,1.1-0.9,2.1-1.3,3.2c0.6-1.1,1.1-2.2,1.7-3.3     c1.7-3.3,3.3-6.7,4.8-10.1c6.4-13.9,12.1-28.2,16.8-42.7c4.1-12.4-4.7-27.9-17.5-30.8C834.7,591.9,822,599.2,817.7,612.5z"/></g></g><g><g><path d="M574.8,365.9c0,4.9-1,10-0.9,14.9c-0.1-6.9,0.4-3.1,0-0.8c-0.2,1-0.3,1.9-0.5,2.9c-0.6,2.8-1.2,5.7-2,8.5     c-1.2,4.6-3,9-4.5,13.5c2.6-7.7,0-0.2-0.9,1.7c-1.2,2.5-2.5,4.9-3.9,7.3c-1.1,2-2.4,3.9-3.6,5.8c-1.1,1.7-6.3,7.5-0.8,1.5     c-3.3,3.6-6.2,7.4-9.8,10.7c-1.6,1.5-3.2,2.9-4.9,4.3c-2.9,2.6,1.8-1.4,2-1.5c-1.1,0.6-2.1,1.5-3.1,2.2     c-3.8,2.6-7.9,4.8-12.1,6.9c-3.5,1.7,2.3-1,2.5-1c-1.2,0.3-2.4,0.9-3.5,1.3c-2,0.7-4,1.3-6,1.8c-2,0.5-4.1,0.9-6.1,1.3     c-4,0.8,2.9-0.4,2.9-0.4c-1.2,0.6-3.7,0.3-5.1,0.4c-2.1,0.1-4.3,0.1-6.4-0.1c-0.8,0-1.7-0.1-2.5-0.2c-4.9-0.3,6.5,1.2,1.6,0.3     c-4.3-0.8-8.6-1.8-12.7-3.3c-1-0.3-1.9-0.8-2.9-1.1c6.6,2,3.8,1.7,2,0.8c-1.9-1-3.8-1.9-5.6-2.9c-1.8-1-3.6-2.2-5.4-3.4     c-0.9-0.6-1.7-1.2-2.6-1.8c-3.8-2.7,4.3,3.6,1,0.8c-3.3-2.9-6.5-5.8-9.5-9c-1.5-1.6-2.9-3.3-4.3-5c-3.2-3.8,3.6,4.9,0.7,0.8     c-0.8-1.1-1.6-2.2-2.3-3.3c-2.5-3.8-4.8-7.8-6.9-11.9c-1.1-2.1-2-4.2-3-6.3c3.6,7.7-0.4-1.3-1-3.3c-1.5-4.5-2.8-9.2-3.8-13.9     c-0.5-2.3-0.7-4.9-1.3-7.2c1.7,6.4,0.5,3.7,0.3,1.5c-0.2-1.7-0.3-3.5-0.4-5.2c-0.3-5-0.3-9.9,0-14.9c0.1-2.2,1.8-10.1,0-1.8     c0.6-2.6,0.9-5.3,1.5-8c1-4.2,2.3-8.2,3.8-12.2c1.4-3.7-1.1,2.6-1.1,2.6c0.1-1,1.1-2.4,1.6-3.3c1.1-2.1,2.2-4.2,3.5-6.2     c0.9-1.4,2-3.9,3.3-4.8c0.1,0-4.3,5.2-1.8,2.3c0.8-0.9,1.5-1.8,2.2-2.6c2.7-3,5.7-5.5,8.7-8.2c2.3-2-5.5,4-1.9,1.5     c0.8-0.5,1.6-1.1,2.3-1.6c1.6-1.1,3.2-2,4.9-3c1.7-0.9,3.4-1.8,5.1-2.6c0.9-0.4,1.8-0.8,2.6-1.2c-7.2,3.5-3.5,1.5-1.6,0.8     c3.7-1.4,7.5-2.5,11.4-3.4c2-0.5,4-0.9,6-1.2c2-0.3,6.3-0.3-1.8,0.2c1.2-0.1,2.5-0.3,3.7-0.4c4.2-0.4,8.5-0.5,12.7-0.4     c2.1,0,4.2,0.1,6.3,0.3c1.2,0.1,2.5,0.2,3.7,0.3c4.4,0.4-6.4-1.1-1.7-0.2c4.8,0.8,9.5,1.8,14.1,3.3c2.1,0.6,4.1,1.5,6.1,2.1     c3,1-6.2-2.8-2.2-0.9c1.2,0.6,2.4,1.1,3.7,1.7c4,2,7.4,4.6,11.2,6.9c-7.3-4.5-0.8-0.6,1.1,1.1c1.7,1.5,3.3,3.2,4.8,4.9     c0.5,0.6,1,1.1,1.5,1.7c4,4.8-2.7-4-0.4-0.5c1.2,1.8,2.4,3.5,3.5,5.4c1.1,1.9,2.2,3.8,3.1,5.8c0.9,1.8,1.9,5.7-0.5-1.5     c0.4,1.2,0.9,2.3,1.3,3.5c1.8,4.9,3.1,10,3.9,15.1c0.2,0.9,0.2,1.8,0.4,2.7c-1.8-8.1-0.3-1.8-0.1,0.3     C574.7,360.1,574.8,363,574.8,365.9c0.1,13.1,11.4,25.6,25,25c13.5-0.6,25.1-11,25-25c-0.1-23.6-5.9-48.1-20.2-67.2     c-14-18.7-32.9-31.8-55.4-38.5c-41.3-12.3-93.6-3.6-122.9,29.9c-34.4,39.3-33.5,98-10.8,142.9c22.3,44.2,71,73.6,120.7,61.1     c56-14.2,88.3-73.5,88.6-128.1c0.1-13.1-11.6-25.6-25-25C586.2,341.6,574.9,351.9,574.8,365.9z"/></g></g><g><g><path d="M718.4,690.1c0-20.1,0-40.2,0-60.2c0-35.9-19.8-68.9-52.9-83.7c-21.1-9.4-42.1-18.8-63.2-28.2     c-8.4-3.8-16.8-7.5-25.3-11.3c-10.1-4.5-20.1-7-30.7-0.9c-4.8,2.7-6.8,5.3-9.9,9.2c-14,18.1-28.1,36.2-42.1,54.3     c13.1,1.7,26.2,3.4,39.3,5.1c-12.5-16.4-25-32.7-37.6-49.1c-2.2-2.9-4.4-5.7-6.6-8.6c-3.1-4.1-5.8-8-10.5-10.6     c-9.7-5.5-19.5-4.5-29.3-0.2c-6.4,2.8-12.8,5.7-19.1,8.5c-22.4,9.9-44.8,19.9-67.3,29.8c-10.6,4.7-20.2,10-29,17.9     c-18.4,16.5-28.4,41.1-28.7,65.5c-0.2,20.8,0,41.7,0,62.5c0,13.1,11.5,25.6,25,25c13.5-0.6,25-11,25-25c0-14,0-28,0-42     c0-6.5,0-12.9,0-19.4c0-0.4,0-0.7,0-1.1c0-1.5,0-2.9,0.1-4.4c0.1-0.9,0.3-2,0.3-2.9c0,0.9-1,5.8-0.3,2.4c0.7-3.3,1.4-6.5,2.5-9.6     c0.2-0.7,0.5-1.3,0.7-2c1-3-2.3,4.9-0.9,2.1c0.9-1.7,1.7-3.4,2.6-5c0.8-1.4,1.7-2.8,2.6-4.2c0.4-0.6,0.8-1.1,1.2-1.7     c1.8-2.6-3.4,4-1.3,1.7c2.4-2.6,4.8-5.1,7.4-7.5c0.6-0.6,2.7-2.1-0.3,0.2c-3.2,2.4-0.5,0.4,0.3-0.2c1.4-1,2.8-1.9,4.2-2.7     c2.1-1.2,4.3-2.3,6.5-3.3c3.2-1.5,6.5-2.9,9.8-4.3c15.9-7.1,31.9-14.2,47.8-21.2c8.3-3.7,16.6-7.4,24.9-11.1     c2.7-1.2,5.4-2.4,8.1-3.6c0.7-0.3,1.5-0.6,2.2-1c4.2-1.9-2.7,3.4-9.1,2.8c-4.2-1.1-8.4-2.3-12.6-3.4c-5.9-2.6-8.8-10.4-6.2-6.8     c0.5,0.6,1,1.3,1.4,1.9c1.7,2.2,3.4,4.5,5.1,6.7c5.1,6.6,10.2,13.3,15.2,19.9c7.4,9.7,14.9,19.5,22.3,29.2     c5,6.5,9.9,10.8,18.3,11.9c7.1,0.9,16.3-0.8,21-6.9c7.7-9.9,15.3-19.7,23-29.6c5.2-6.7,10.4-13.4,15.6-20.1     c1.7-2.2,3.3-4.3,5-6.5c0.4-0.5,0.9-1.1,1.3-1.6c1-1.6,1.5,0.2-2.4,1.9c-4.2,1.1-8.4,2.3-12.6,3.4c1.3-0.1-12.9-4.7-9.4-2.9     c0.6,0.3,1.2,0.5,1.8,0.8c2.1,1,4.3,1.9,6.4,2.9c6.9,3.1,13.9,6.2,20.8,9.3c16.4,7.3,32.8,14.6,49.2,21.9c4.5,2,9,4,13.5,6     c2.5,1.1,5,2.3,7.4,3.7c1.4,0.8,2.8,1.8,4.2,2.7c4.8,3.4-3-2.9,0,0c2.6,2.4,5,4.9,7.4,7.5c2.1,2.3-3.1-4.3-1.3-1.7     c0.4,0.6,0.8,1.1,1.2,1.7c0.9,1.4,1.8,2.7,2.6,4.2c0.8,1.4,1.5,2.9,2.3,4.4c0.4,0.7,1.4,3.2-0.1-0.4c-1.7-4,0,0,0.3,1     c1.1,3.2,1.8,6.4,2.5,9.6c1,4.2-0.5-6.3-0.1-0.2c0.1,1.7,0.2,3.4,0.2,5.1c0,4.7,0,9.5,0,14.2c0,16.1,0,32.3,0,48.4     c0,13.1,11.5,25.6,25,25C706.9,714.5,718.4,704.1,718.4,690.1L718.4,690.1z"/></g></g></g><text x="0" y="1039" fill="#000000" font-size="5px" font-weight="bold" font-family="'Helvetica Neue', Helvetica, Arial-Unicode, Arial, Sans-serif">Created by shashank singh</text><text x="0" y="1044" fill="#000000" font-size="5px" font-weight="bold" font-family="'Helvetica Neue', Helvetica, Arial-Unicode, Arial, Sans-serif">from the Noun Project</text></svg>